<svg width="180" height="60" viewBox="0 0 180 60" fill="none" xmlns="http://www.w3.org/2000/svg">
<rect width="175" height="60" rx="8" fill="white"/>
<circle cx="175" cy="30" r="5" fill="#FF9B04"/>
<path d="M16.12 16.2H23.12V26H22.14V17.124H17.1V26H16.12V16.2ZM26.1462 24.39L30.3182 19H31.1022V26H30.1782V20.61L26.0062 26H25.2222V19H26.1462V24.39ZM33.7842 19H38.7962V26H37.8722V19.896H34.7082V23.018C34.7082 24.1847 34.4842 24.9873 34.0362 25.426C33.5975 25.8647 32.9908 26.056 32.2162 26V25.132C32.7575 25.188 33.1542 25.0573 33.4062 24.74C33.6582 24.4227 33.7842 23.8487 33.7842 23.018V19ZM46.6194 25.118C45.9008 25.818 45.0328 26.168 44.0154 26.168C42.9794 26.168 42.1068 25.818 41.3974 25.118C40.6881 24.4087 40.3334 23.536 40.3334 22.5C40.3334 21.464 40.6881 20.596 41.3974 19.896C42.1068 19.1867 42.9794 18.832 44.0154 18.832C45.0421 18.832 45.9101 19.1867 46.6194 19.896C47.3381 20.596 47.6974 21.464 47.6974 22.5C47.6974 23.5267 47.3381 24.3993 46.6194 25.118ZM42.0554 24.474C42.5874 25.006 43.2408 25.272 44.0154 25.272C44.7901 25.272 45.4434 25.006 45.9754 24.474C46.5074 23.9233 46.7734 23.2653 46.7734 22.5C46.7734 21.7253 46.5074 21.072 45.9754 20.54C45.4434 19.9987 44.7901 19.728 44.0154 19.728C43.2408 19.728 42.5874 19.9987 42.0554 20.54C41.5234 21.072 41.2574 21.7253 41.2574 22.5C41.2574 23.2653 41.5234 23.9233 42.0554 24.474ZM55.0397 19H56.1037V26H55.1797V20.414L52.7297 24.39H52.6177L50.1677 20.414V26H49.2437V19H50.3077L52.6737 22.836L55.0397 19ZM64.082 20.372V19H65.006V26H64.082V24.628C63.438 25.6547 62.4954 26.168 61.254 26.168C60.2554 26.168 59.4014 25.8133 58.692 25.104C57.992 24.3947 57.642 23.5267 57.642 22.5C57.642 21.4733 57.992 20.6053 58.692 19.896C59.4014 19.1867 60.2554 18.832 61.254 18.832C62.4954 18.832 63.438 19.3453 64.082 20.372ZM59.364 24.474C59.896 25.006 60.5494 25.272 61.324 25.272C62.0987 25.272 62.752 25.006 63.284 24.474C63.816 23.9233 64.082 23.2653 64.082 22.5C64.082 21.7253 63.816 21.072 63.284 20.54C62.752 19.9987 62.0987 19.728 61.324 19.728C60.5494 19.728 59.896 19.9987 59.364 20.54C58.832 21.072 58.566 21.7253 58.566 22.5C58.566 23.2653 58.832 23.9233 59.364 24.474ZM66.1224 19H72.0024V19.896H69.5244V26H68.6004V19.896H66.1224V19ZM76.089 18.832C77.1343 18.832 77.9697 19.2007 78.595 19.938C79.239 20.666 79.561 21.5293 79.561 22.528C79.561 22.5747 79.5517 22.7193 79.533 22.962H73.387C73.4803 23.662 73.779 24.222 74.283 24.642C74.787 25.062 75.417 25.272 76.173 25.272C77.237 25.272 77.9883 24.8753 78.427 24.082L79.239 24.558C78.931 25.062 78.5063 25.4587 77.965 25.748C77.433 26.028 76.831 26.168 76.159 26.168C75.0577 26.168 74.1617 25.8227 73.471 25.132C72.7803 24.4413 72.435 23.564 72.435 22.5C72.435 21.4453 72.7757 20.5727 73.457 19.882C74.1383 19.182 75.0157 18.832 76.089 18.832ZM76.089 19.728C75.361 19.728 74.7497 19.9427 74.255 20.372C73.7697 20.8013 73.4803 21.366 73.387 22.066H78.609C78.5063 21.3193 78.2217 20.7453 77.755 20.344C77.2697 19.9333 76.7143 19.728 76.089 19.728ZM84.7828 18.832C85.7814 18.832 86.6308 19.1867 87.3308 19.896C88.0401 20.6053 88.3948 21.4733 88.3948 22.5C88.3948 23.5267 88.0401 24.3947 87.3308 25.104C86.6308 25.8133 85.7814 26.168 84.7828 26.168C83.5414 26.168 82.5988 25.6547 81.9548 24.628V28.8H81.0308V19H81.9548V20.372C82.5988 19.3453 83.5414 18.832 84.7828 18.832ZM82.7528 24.474C83.2848 25.006 83.9381 25.272 84.7128 25.272C85.4874 25.272 86.1408 25.006 86.6728 24.474C87.2048 23.9233 87.4708 23.2653 87.4708 22.5C87.4708 21.7253 87.2048 21.072 86.6728 20.54C86.1408 19.9987 85.4874 19.728 84.7128 19.728C83.9381 19.728 83.2848 19.9987 82.7528 20.54C82.2208 21.072 81.9548 21.7253 81.9548 22.5C81.9548 23.2653 82.2208 23.9233 82.7528 24.474ZM90.8552 24.39L95.0272 19H95.8112V26H94.8872V20.61L90.7152 26H89.9312V19H90.8552V24.39ZM103.785 20.372V19H104.709V26H103.785V24.628C103.141 25.6547 102.198 26.168 100.957 26.168C99.9585 26.168 99.1045 25.8133 98.3952 25.104C97.6952 24.3947 97.3452 23.5267 97.3452 22.5C97.3452 21.4733 97.6952 20.6053 98.3952 19.896C99.1045 19.1867 99.9585 18.832 100.957 18.832C102.198 18.832 103.141 19.3453 103.785 20.372ZM99.0672 24.474C99.5992 25.006 100.252 25.272 101.027 25.272C101.802 25.272 102.455 25.006 102.987 24.474C103.519 23.9233 103.785 23.2653 103.785 22.5C103.785 21.7253 103.519 21.072 102.987 20.54C102.455 19.9987 101.802 19.728 101.027 19.728C100.252 19.728 99.5992 19.9987 99.0672 20.54C98.5352 21.072 98.2692 21.7253 98.2692 22.5C98.2692 23.2653 98.5352 23.9233 99.0672 24.474ZM107.394 19H112.406V26H111.482V19.896H108.318V23.018C108.318 24.1847 108.094 24.9873 107.646 25.426C107.207 25.8647 106.6 26.056 105.826 26V25.132C106.367 25.188 106.764 25.0573 107.016 24.74C107.268 24.4227 107.394 23.8487 107.394 23.018V19ZM115.287 21.66H117.205C117.849 21.66 118.399 21.8653 118.857 22.276C119.314 22.6773 119.543 23.1953 119.543 23.83C119.543 24.474 119.314 24.9967 118.857 25.398C118.418 25.7993 117.867 26 117.205 26H114.363V19H115.287V21.66ZM120.523 26V19H121.447V26H120.523ZM115.287 25.104H117.205C117.606 25.104 117.942 24.9873 118.213 24.754C118.483 24.5113 118.619 24.2033 118.619 23.83C118.619 23.4567 118.483 23.1533 118.213 22.92C117.942 22.6773 117.606 22.556 117.205 22.556H115.287V25.104ZM132.78 25.118C132.061 25.818 131.193 26.168 130.176 26.168C129.14 26.168 128.267 25.818 127.558 25.118C126.848 24.4087 126.494 23.536 126.494 22.5C126.494 21.464 126.848 20.596 127.558 19.896C128.267 19.1867 129.14 18.832 130.176 18.832C131.202 18.832 132.07 19.1867 132.78 19.896C133.498 20.596 133.858 21.464 133.858 22.5C133.858 23.5267 133.498 24.3993 132.78 25.118ZM128.216 24.474C128.748 25.006 129.401 25.272 130.176 25.272C130.95 25.272 131.604 25.006 132.136 24.474C132.668 23.9233 132.934 23.2653 132.934 22.5C132.934 21.7253 132.668 21.072 132.136 20.54C131.604 19.9987 130.95 19.728 130.176 19.728C129.401 19.728 128.748 19.9987 128.216 20.54C127.684 21.072 127.418 21.7253 127.418 22.5C127.418 23.2653 127.684 23.9233 128.216 24.474ZM134.29 19H140.17V19.896H137.692V26H136.768V19.896H134.29V19ZM15.98 36H21.86V43H20.936V36.896H16.904V43H15.98V36ZM27.566 35.832C28.5647 35.832 29.414 36.1867 30.114 36.896C30.8233 37.6053 31.178 38.4733 31.178 39.5C31.178 40.5267 30.8233 41.3947 30.114 42.104C29.414 42.8133 28.5647 43.168 27.566 43.168C26.3247 43.168 25.382 42.6547 24.738 41.628V45.8H23.814V36H24.738V37.372C25.382 36.3453 26.3247 35.832 27.566 35.832ZM25.536 41.474C26.068 42.006 26.7213 42.272 27.496 42.272C28.2707 42.272 28.924 42.006 29.456 41.474C29.988 40.9233 30.254 40.2653 30.254 39.5C30.254 38.7253 29.988 38.072 29.456 37.54C28.924 36.9987 28.2707 36.728 27.496 36.728C26.7213 36.728 26.068 36.9987 25.536 37.54C25.004 38.072 24.738 38.7253 24.738 39.5C24.738 40.2653 25.004 40.9233 25.536 41.474ZM38.5804 42.118C37.8617 42.818 36.9937 43.168 35.9764 43.168C34.9404 43.168 34.0677 42.818 33.3584 42.118C32.649 41.4087 32.2944 40.536 32.2944 39.5C32.2944 38.464 32.649 37.596 33.3584 36.896C34.0677 36.1867 34.9404 35.832 35.9764 35.832C37.003 35.832 37.871 36.1867 38.5804 36.896C39.299 37.596 39.6584 38.464 39.6584 39.5C39.6584 40.5267 39.299 41.3993 38.5804 42.118ZM34.0164 41.474C34.5484 42.006 35.2017 42.272 35.9764 42.272C36.751 42.272 37.4044 42.006 37.9364 41.474C38.4684 40.9233 38.7344 40.2653 38.7344 39.5C38.7344 38.7253 38.4684 38.072 37.9364 37.54C37.4044 36.9987 36.751 36.728 35.9764 36.728C35.2017 36.728 34.5484 36.9987 34.0164 37.54C33.4844 38.072 33.2184 38.7253 33.2184 39.5C33.2184 40.2653 33.4844 40.9233 34.0164 41.474ZM42.1286 41.39L46.3006 36H47.0846V43H46.1606V37.61L41.9886 43H41.2046V36H42.1286V41.39ZM52.6506 39.402C53.4626 39.71 53.8686 40.27 53.8686 41.082C53.8686 41.67 53.6399 42.1647 53.1826 42.566C52.7439 42.9673 52.0999 43.168 51.2506 43.168C49.8319 43.168 48.9079 42.608 48.4786 41.488L49.2626 41.026C49.5613 41.8567 50.2239 42.272 51.2506 42.272C51.7826 42.272 52.1979 42.16 52.4966 41.936C52.7953 41.7027 52.9446 41.3993 52.9446 41.026C52.9446 40.69 52.8233 40.424 52.5806 40.228C52.3379 40.0227 52.0113 39.92 51.6006 39.92H50.5786V39.024H51.3206C51.7219 39.024 52.0346 38.926 52.2586 38.73C52.4919 38.5247 52.6086 38.2447 52.6086 37.89C52.6086 37.554 52.4686 37.2787 52.1886 37.064C51.9179 36.84 51.5586 36.728 51.1106 36.728C50.2426 36.728 49.6593 37.078 49.3606 37.778L48.5906 37.33C49.0573 36.3313 49.8973 35.832 51.1106 35.832C51.8573 35.832 52.4453 36.028 52.8746 36.42C53.3133 36.8027 53.5326 37.274 53.5326 37.834C53.5326 38.5527 53.2386 39.0753 52.6506 39.402ZM59.725 39.402C60.4903 39.682 60.873 40.228 60.873 41.04C60.873 41.6187 60.677 42.09 60.285 42.454C59.9023 42.818 59.3656 43 58.675 43H55.273V36H58.395C59.067 36 59.5896 36.1727 59.963 36.518C60.3456 36.8633 60.537 37.316 60.537 37.876C60.537 38.576 60.2663 39.0847 59.725 39.402ZM58.395 36.896H56.197V39.024H58.395C59.207 39.024 59.613 38.66 59.613 37.932C59.613 37.6053 59.5056 37.3533 59.291 37.176C59.0856 36.9893 58.787 36.896 58.395 36.896ZM56.197 42.104H58.675C59.0856 42.104 59.3983 42.006 59.613 41.81C59.837 41.614 59.949 41.3387 59.949 40.984C59.949 40.648 59.837 40.3867 59.613 40.2C59.3983 40.0133 59.0856 39.92 58.675 39.92H56.197V42.104ZM68.139 42.118C67.4203 42.818 66.5523 43.168 65.535 43.168C64.499 43.168 63.6263 42.818 62.917 42.118C62.2076 41.4087 61.853 40.536 61.853 39.5C61.853 38.464 62.2076 37.596 62.917 36.896C63.6263 36.1867 64.499 35.832 65.535 35.832C66.5616 35.832 67.4296 36.1867 68.139 36.896C68.8576 37.596 69.217 38.464 69.217 39.5C69.217 40.5267 68.8576 41.3993 68.139 42.118ZM63.575 41.474C64.107 42.006 64.7603 42.272 65.535 42.272C66.3096 42.272 66.963 42.006 67.495 41.474C68.027 40.9233 68.293 40.2653 68.293 39.5C68.293 38.7253 68.027 38.072 67.495 37.54C66.963 36.9987 66.3096 36.728 65.535 36.728C64.7603 36.728 64.107 36.9987 63.575 37.54C63.043 38.072 62.777 38.7253 62.777 39.5C62.777 40.2653 63.043 40.9233 63.575 41.474ZM76.3698 36V42.104H77.3498V44.876H76.4258V43H70.7138V44.876H69.7898V42.104H70.6438C71.1198 41.4693 71.3578 40.5873 71.3578 39.458V36H76.3698ZM71.7638 42.104H75.4458V36.896H72.2818V39.458C72.2818 40.5407 72.1091 41.4227 71.7638 42.104ZM79.6716 41.39L83.8436 36H84.6276V43H83.7036V37.61L79.5316 43H78.7476V36H79.6716V41.39ZM85.7416 36H91.6216V36.896H89.1436V43H88.2196V36.896H85.7416V36ZM95.7081 35.832C96.7535 35.832 97.5888 36.2007 98.2141 36.938C98.8581 37.666 99.1801 38.5293 99.1801 39.528C99.1801 39.5747 99.1708 39.7193 99.1521 39.962H93.0061C93.0995 40.662 93.3981 41.222 93.9021 41.642C94.4061 42.062 95.0361 42.272 95.7921 42.272C96.8561 42.272 97.6075 41.8753 98.0461 41.082L98.8581 41.558C98.5501 42.062 98.1255 42.4587 97.5841 42.748C97.0521 43.028 96.4501 43.168 95.7781 43.168C94.6768 43.168 93.7808 42.8227 93.0901 42.132C92.3995 41.4413 92.0541 40.564 92.0541 39.5C92.0541 38.4453 92.3948 37.5727 93.0761 36.882C93.7575 36.182 94.6348 35.832 95.7081 35.832ZM95.7081 36.728C94.9801 36.728 94.3688 36.9427 93.8741 37.372C93.3888 37.8013 93.0995 38.366 93.0061 39.066H98.2281C98.1255 38.3193 97.8408 37.7453 97.3741 37.344C96.8888 36.9333 96.3335 36.728 95.7081 36.728ZM101.104 36H106.116V43H105.192V36.896H102.028V40.018C102.028 41.1847 101.804 41.9873 101.356 42.426C100.918 42.8647 100.311 43.056 99.5365 43V42.132C100.078 42.188 100.474 42.0573 100.726 41.74C100.978 41.4227 101.104 40.8487 101.104 40.018V36ZM110.272 36H113.114V43H112.19V40.312H110.986L108.83 43H107.654L109.866 40.284C109.296 40.2 108.83 39.9667 108.466 39.584C108.111 39.192 107.934 38.7207 107.934 38.17C107.934 37.5447 108.158 37.0267 108.606 36.616C109.072 36.2053 109.628 36 110.272 36ZM110.272 39.444H112.19V36.896H110.272C109.87 36.896 109.534 37.0173 109.264 37.26C108.993 37.4933 108.858 37.7967 108.858 38.17C108.858 38.5433 108.993 38.8513 109.264 39.094C109.534 39.3273 109.87 39.444 110.272 39.444Z" fill="#222222"/>
</svg>
